<svg width="30" height="30" viewBox="0 0 30 30" fill="none" xmlns="http://www.w3.org/2000/svg">
<path d="M29.4827 24.8276H0.517265C0.231621 24.8276 0 24.596 0 24.3103V5.68966C0 5.40401 0.231621 5.17239 0.517265 5.17239H29.4827C29.7684 5.17239 30 5.40401 30 5.68966V24.3103C29.9999 24.596 29.7683 24.8276 29.4827 24.8276Z" fill="#F5F5F5"/>
<path d="M29.9999 6.6844H0V5.68966C0 5.40401 0.231621 5.17239 0.517265 5.17239H29.4827C29.7684 5.17239 30 5.40401 30 5.68966L29.9999 6.6844Z" fill="#FF4B55"/>
<path d="M29.9999 11.2202H0V12.7321H29.9999V11.2202Z" fill="#FF4B55"/>
<path d="M29.9999 8.19614H0V9.70809H29.9999V8.19614Z" fill="#FF4B55"/>
<path d="M29.9999 15.756H0.517265C0.231621 15.756 0 15.5244 0 15.2387V14.244H29.9999V15.756Z" fill="#FF4B55"/>
<path d="M29.9999 20.2922H0V21.8042H29.9999V20.2922Z" fill="#FF4B55"/>
<path d="M29.4827 24.8276H0.517265C0.231621 24.8276 0 24.5959 0 24.3103V23.3156H29.9999V24.3104C29.9999 24.596 29.7683 24.8276 29.4827 24.8276Z" fill="#FF4B55"/>
<path d="M29.9999 17.2682H0V18.7801H29.9999V17.2682Z" fill="#FF4B55"/>
<path d="M13.4482 5.17245H0.517265C0.231621 5.17245 0 5.40402 0 5.68966V15.2387C0 15.5243 0.231621 15.7559 0.517265 15.7559H13.4483C13.7339 15.7559 13.9656 15.5243 13.9656 15.2387V5.68966C13.9655 5.40402 13.7339 5.17245 13.4482 5.17245Z" fill="#41479B"/>
<path d="M1.45281 6.35976L1.5673 6.70312L1.92924 6.70587C1.97611 6.70629 1.99551 6.76605 1.95783 6.79388L1.66668 7.00892L1.7759 7.35398C1.79008 7.39863 1.73916 7.43566 1.70101 7.40835L1.40658 7.19794L1.11215 7.40841C1.074 7.43566 1.0232 7.39869 1.03727 7.35404L1.14648 7.00898L0.855333 6.79394C0.817658 6.76605 0.837052 6.70634 0.883927 6.70593L1.24586 6.70318L1.36035 6.35982C1.37512 6.31529 1.43793 6.31529 1.45281 6.35976Z" fill="#F5F5F5"/>
<path d="M1.45281 8.15577L1.5673 8.49913L1.92924 8.50188C1.97611 8.50229 1.99551 8.56206 1.95783 8.58989L1.66668 8.80493L1.7759 9.14998C1.79008 9.19463 1.73916 9.23166 1.70101 9.20436L1.40658 8.99395L1.11215 9.20442C1.074 9.23166 1.0232 9.19469 1.03727 9.15004L1.14648 8.80499L0.855333 8.58995C0.817658 8.56206 0.837052 8.50235 0.883927 8.50194L1.24586 8.49919L1.36035 8.15583C1.37512 8.11136 1.43793 8.11136 1.45281 8.15577Z" fill="#F5F5F5"/>
<path d="M1.45281 9.95191L1.5673 10.2953L1.92924 10.298C1.97611 10.2984 1.99551 10.3582 1.95783 10.386L1.66668 10.6011L1.7759 10.9461C1.79008 10.9908 1.73916 11.0278 1.70101 11.0005L1.40658 10.7901L1.11215 11.0006C1.074 11.0278 1.0232 10.9908 1.03727 10.9462L1.14648 10.6011L0.855333 10.3861C0.817658 10.3582 0.837052 10.2985 0.883927 10.2981L1.24586 10.2953L1.36035 9.95197C1.37512 9.9075 1.43793 9.9075 1.45281 9.95191Z" fill="#F5F5F5"/>
<path d="M1.45281 11.7481L1.5673 12.0915L1.92924 12.0942C1.97611 12.0946 1.99551 12.1544 1.95783 12.1822L1.66668 12.3973L1.7759 12.7423C1.79008 12.787 1.73916 12.824 1.70101 12.7967L1.40658 12.5863L1.11215 12.7968C1.074 12.824 1.0232 12.787 1.03727 12.7424L1.14648 12.3973L0.855333 12.1823C0.817658 12.1544 0.837052 12.0947 0.883927 12.0943L1.24586 12.0915L1.36035 11.7482C1.37512 11.7036 1.43793 11.7036 1.45281 11.7481Z" fill="#F5F5F5"/>
<path d="M1.45281 13.5442L1.5673 13.8876L1.92924 13.8903C1.97611 13.8907 1.99551 13.9505 1.95783 13.9783L1.66668 14.1934L1.7759 14.5384C1.79008 14.5831 1.73916 14.6201 1.70101 14.5928L1.40658 14.3824L1.11215 14.5929C1.074 14.6201 1.0232 14.5831 1.03727 14.5385L1.14648 14.1934L0.855333 13.9784C0.817658 13.9505 0.837052 13.8908 0.883927 13.8904L1.24586 13.8876L1.36035 13.5443C1.37512 13.4997 1.43793 13.4997 1.45281 13.5442Z" fill="#F5F5F5"/>
<path d="M2.84698 7.24025L2.96147 7.58361L3.3234 7.58636C3.37028 7.58677 3.38967 7.64654 3.35199 7.67437L3.06084 7.88941L3.17006 8.23447C3.18424 8.27911 3.13332 8.31615 3.09518 8.28884L2.80075 8.07837L2.50631 8.28884C2.46817 8.31609 2.41737 8.27911 2.43143 8.23447L2.54065 7.88941L2.2495 7.67437C2.21182 7.64648 2.23122 7.58677 2.27809 7.58636L2.64002 7.58361L2.75452 7.24025C2.76922 7.19584 2.83215 7.19584 2.84698 7.24025Z" fill="#F5F5F5"/>
<path d="M2.84698 9.03641L2.96147 9.37976L3.3234 9.38252C3.37028 9.38293 3.38967 9.44269 3.35199 9.47052L3.06084 9.68556L3.17006 10.0306C3.18424 10.0753 3.13332 10.1123 3.09518 10.085L2.80075 9.87452L2.50631 10.085C2.46817 10.1122 2.41737 10.0753 2.43143 10.0306L2.54065 9.68556L2.2495 9.47052C2.21182 9.44263 2.23122 9.38293 2.27809 9.38252L2.64002 9.37976L2.75452 9.03641C2.76922 8.99193 2.83215 8.99193 2.84698 9.03641Z" fill="#F5F5F5"/>
<path d="M2.84698 10.8325L2.96147 11.1759L3.3234 11.1787C3.37028 11.1791 3.38967 11.2388 3.35199 11.2667L3.06084 11.4817L3.17006 11.8268C3.18424 11.8714 3.13332 11.9084 3.09518 11.8811L2.80075 11.6707L2.50631 11.8811C2.46817 11.9084 2.41737 11.8714 2.43143 11.8268L2.54065 11.4817L2.2495 11.2667C2.21182 11.2388 2.23122 11.1791 2.27809 11.1787L2.64002 11.1759L2.75452 10.8325C2.76922 10.7881 2.83215 10.7881 2.84698 10.8325Z" fill="#F5F5F5"/>
<path d="M2.84698 12.6287L2.96147 12.9721L3.3234 12.9748C3.37028 12.9752 3.38967 13.035 3.35199 13.0628L3.06084 13.2779L3.17006 13.6229C3.18424 13.6676 3.13332 13.7046 3.09518 13.6773L2.80075 13.4668L2.50631 13.6773C2.46817 13.7045 2.41737 13.6676 2.43143 13.6229L2.54065 13.2779L2.2495 13.0628C2.21182 13.0349 2.23122 12.9752 2.27809 12.9748L2.64002 12.9721L2.75452 12.6287C2.76922 12.5843 2.83215 12.5843 2.84698 12.6287Z" fill="#F5F5F5"/>
<path d="M4.24115 6.35965L4.35564 6.70301L4.71757 6.70576C4.76445 6.70617 4.78384 6.76593 4.74617 6.79377L4.45501 7.0088L4.56423 7.35386C4.57841 7.39851 4.52749 7.43554 4.48935 7.40823L4.19492 7.19777L3.90048 7.40823C3.86234 7.43548 3.81154 7.39851 3.8256 7.35386L3.93482 7.0088L3.64366 6.79377C3.60599 6.76588 3.62538 6.70617 3.67226 6.70576L4.03419 6.70301L4.14868 6.35965C4.16345 6.31518 4.22632 6.31518 4.24115 6.35965Z" fill="#F5F5F5"/>
<path d="M4.24115 8.15578L4.35564 8.49914L4.71757 8.50189C4.76445 8.5023 4.78384 8.56207 4.74617 8.5899L4.45501 8.80494L4.56423 9.14999C4.57841 9.19464 4.52749 9.23167 4.48935 9.20437L4.19492 8.9939L3.90048 9.20437C3.86234 9.23161 3.81154 9.19464 3.8256 9.14999L3.93482 8.80494L3.64366 8.5899C3.60599 8.56201 3.62538 8.5023 3.67226 8.50189L4.03419 8.49914L4.14868 8.15578C4.16345 8.11136 4.22632 8.11136 4.24115 8.15578Z" fill="#F5F5F5"/>
<path d="M4.24115 9.95189L4.35564 10.2953L4.71757 10.298C4.76445 10.2984 4.78384 10.3582 4.74617 10.386L4.45501 10.6011L4.56423 10.9461C4.57841 10.9908 4.52749 11.0278 4.48935 11.0005L4.19492 10.79L3.90048 11.0005C3.86234 11.0277 3.81154 10.9908 3.8256 10.9461L3.93482 10.6011L3.64366 10.386C3.60599 10.3581 3.62538 10.2984 3.67226 10.298L4.03419 10.2953L4.14868 9.95189C4.16345 9.90748 4.22632 9.90748 4.24115 9.95189Z" fill="#F5F5F5"/>
<path d="M4.24115 11.7481L4.35564 12.0914L4.71757 12.0942C4.76445 12.0946 4.78384 12.1544 4.74617 12.1822L4.45501 12.3972L4.56423 12.7423C4.57841 12.7869 4.52749 12.824 4.48935 12.7967L4.19492 12.5862L3.90048 12.7967C3.86234 12.8239 3.81154 12.7869 3.8256 12.7423L3.93482 12.3972L3.64366 12.1822C3.60599 12.1543 3.62538 12.0946 3.67226 12.0942L4.03419 12.0914L4.14868 11.7481C4.16345 11.7036 4.22632 11.7036 4.24115 11.7481Z" fill="#F5F5F5"/>
<path d="M4.24115 13.5442L4.35564 13.8876L4.71757 13.8903C4.76445 13.8907 4.78384 13.9505 4.74617 13.9783L4.45501 14.1934L4.56423 14.5384C4.57841 14.5831 4.52749 14.6201 4.48935 14.5928L4.19492 14.3823L3.90048 14.5928C3.86234 14.62 3.81154 14.5831 3.8256 14.5384L3.93482 14.1934L3.64366 13.9783C3.60599 13.9504 3.62538 13.8907 3.67226 13.8903L4.03419 13.8876L4.14868 13.5442C4.16345 13.4997 4.22632 13.4997 4.24115 13.5442Z" fill="#F5F5F5"/>
<path d="M5.63409 7.24025L5.74858 7.58361L6.11051 7.58636C6.15739 7.58677 6.17678 7.64654 6.13911 7.67437L5.84795 7.88941L5.95717 8.23447C5.97135 8.27911 5.92044 8.31615 5.88229 8.28884L5.58786 8.07837L5.29342 8.28884C5.25528 8.31609 5.20448 8.27911 5.21854 8.23447L5.32776 7.88941L5.03661 7.67437C4.99893 7.64648 5.01833 7.58677 5.0652 7.58636L5.42713 7.58361L5.54163 7.24025C5.55633 7.19584 5.61926 7.19584 5.63409 7.24025Z" fill="#F5F5F5"/>
<path d="M5.63409 9.03641L5.74858 9.37976L6.11051 9.38252C6.15739 9.38293 6.17678 9.44269 6.13911 9.47052L5.84795 9.68556L5.95717 10.0306C5.97135 10.0753 5.92044 10.1123 5.88229 10.085L5.58786 9.87452L5.29342 10.085C5.25528 10.1122 5.20448 10.0753 5.21854 10.0306L5.32776 9.68556L5.03661 9.47052C4.99893 9.44263 5.01833 9.38293 5.0652 9.38252L5.42713 9.37976L5.54163 9.03641C5.55633 8.99193 5.61926 8.99193 5.63409 9.03641Z" fill="#F5F5F5"/>
<path d="M5.63409 10.8325L5.74858 11.1759L6.11051 11.1787C6.15739 11.1791 6.17678 11.2388 6.13911 11.2667L5.84795 11.4817L5.95717 11.8268C5.97135 11.8714 5.92044 11.9084 5.88229 11.8811L5.58786 11.6707L5.29342 11.8811C5.25528 11.9084 5.20448 11.8714 5.21854 11.8268L5.32776 11.4817L5.03661 11.2667C4.99893 11.2388 5.01833 11.1791 5.0652 11.1787L5.42713 11.1759L5.54163 10.8325C5.55633 10.7881 5.61926 10.7881 5.63409 10.8325Z" fill="#F5F5F5"/>
<path d="M5.63409 12.6287L5.74858 12.9721L6.11051 12.9748C6.15739 12.9752 6.17678 13.035 6.13911 13.0628L5.84795 13.2779L5.95717 13.6229C5.97135 13.6676 5.92044 13.7046 5.88229 13.6773L5.58786 13.4668L5.29342 13.6773C5.25528 13.7045 5.20448 13.6676 5.21854 13.6229L5.32776 13.2779L5.03661 13.0628C4.99893 13.0349 5.01833 12.9752 5.0652 12.9748L5.42713 12.9721L5.54163 12.6287C5.55633 12.5843 5.61926 12.5843 5.63409 12.6287Z" fill="#F5F5F5"/>
<path d="M7.03014 6.35965L7.14464 6.70301L7.50657 6.70576C7.55344 6.70617 7.57284 6.76593 7.53516 6.79377L7.24401 7.0088L7.35323 7.35386C7.36741 7.39851 7.31649 7.43554 7.27835 7.40823L6.98385 7.19777L6.68942 7.40823C6.65128 7.43548 6.60048 7.39851 6.61454 7.35386L6.72376 7.0088L6.4326 6.79377C6.39493 6.76588 6.41432 6.70617 6.4612 6.70576L6.82313 6.70301L6.93762 6.35965C6.95245 6.31518 7.01532 6.31518 7.03014 6.35965Z" fill="#F5F5F5"/>
<path d="M7.03014 8.15578L7.14464 8.49914L7.50657 8.50189C7.55344 8.5023 7.57284 8.56207 7.53516 8.5899L7.24401 8.80494L7.35323 9.14999C7.36741 9.19464 7.31649 9.23167 7.27835 9.20437L6.98385 8.9939L6.68942 9.20437C6.65128 9.23161 6.60048 9.19464 6.61454 9.14999L6.72376 8.80494L6.4326 8.5899C6.39493 8.56201 6.41432 8.5023 6.4612 8.50189L6.82313 8.49914L6.93762 8.15578C6.95245 8.11136 7.01532 8.11136 7.03014 8.15578Z" fill="#F5F5F5"/>
<path d="M7.03014 9.95189L7.14464 10.2953L7.50657 10.298C7.55344 10.2984 7.57284 10.3582 7.53516 10.386L7.24401 10.6011L7.35323 10.9461C7.36741 10.9908 7.31649 11.0278 7.27835 11.0005L6.98385 10.79L6.68942 11.0005C6.65128 11.0277 6.60048 10.9908 6.61454 10.9461L6.72376 10.6011L6.4326 10.386C6.39493 10.3581 6.41432 10.2984 6.4612 10.298L6.82313 10.2953L6.93762 9.95189C6.95245 9.90748 7.01532 9.90748 7.03014 9.95189Z" fill="#F5F5F5"/>
<path d="M7.03014 11.7481L7.14464 12.0914L7.50657 12.0942C7.55344 12.0946 7.57284 12.1544 7.53516 12.1822L7.24401 12.3972L7.35323 12.7423C7.36741 12.7869 7.31649 12.824 7.27835 12.7967L6.98385 12.5862L6.68942 12.7967C6.65128 12.8239 6.60048 12.7869 6.61454 12.7423L6.72376 12.3972L6.4326 12.1822C6.39493 12.1543 6.41432 12.0946 6.4612 12.0942L6.82313 12.0914L6.93762 11.7481C6.95245 11.7036 7.01532 11.7036 7.03014 11.7481Z" fill="#F5F5F5"/>
<path d="M7.03014 13.5442L7.14464 13.8876L7.50657 13.8903C7.55344 13.8907 7.57284 13.9505 7.53516 13.9783L7.24401 14.1934L7.35323 14.5384C7.36741 14.5831 7.31649 14.6201 7.27835 14.5928L6.98385 14.3823L6.68942 14.5928C6.65128 14.62 6.60048 14.5831 6.61454 14.5384L6.72376 14.1934L6.4326 13.9783C6.39493 13.9504 6.41432 13.8907 6.4612 13.8903L6.82313 13.8876L6.93762 13.5442C6.95245 13.4997 7.01532 13.4997 7.03014 13.5442Z" fill="#F5F5F5"/>
<path d="M8.42242 7.24025L8.53691 7.58361L8.89885 7.58636C8.94572 7.58677 8.96512 7.64654 8.92744 7.67437L8.63629 7.88941L8.74551 8.23447C8.75969 8.27911 8.70877 8.31615 8.67062 8.28884L8.37619 8.07837L8.08176 8.28884C8.04361 8.31609 7.99281 8.27911 8.00687 8.23447L8.11609 7.88941L7.82494 7.67437C7.78726 7.64648 7.80666 7.58677 7.85353 7.58636L8.21547 7.58361L8.32996 7.24025C8.34478 7.19584 8.4076 7.19584 8.42242 7.24025Z" fill="#F5F5F5"/>
<path d="M8.42242 9.03641L8.53691 9.37976L8.89885 9.38252C8.94572 9.38293 8.96512 9.44269 8.92744 9.47052L8.63629 9.68556L8.74551 10.0306C8.75969 10.0753 8.70877 10.1123 8.67062 10.085L8.37619 9.87452L8.08176 10.085C8.04361 10.1122 7.99281 10.0753 8.00687 10.0306L8.11609 9.68556L7.82494 9.47052C7.78726 9.44263 7.80666 9.38293 7.85353 9.38252L8.21547 9.37976L8.32996 9.03641C8.34478 8.99193 8.4076 8.99193 8.42242 9.03641Z" fill="#F5F5F5"/>
<path d="M8.42242 10.8325L8.53691 11.1759L8.89885 11.1787C8.94572 11.1791 8.96512 11.2388 8.92744 11.2667L8.63629 11.4817L8.74551 11.8268C8.75969 11.8714 8.70877 11.9084 8.67062 11.8811L8.37619 11.6707L8.08176 11.8811C8.04361 11.9084 7.99281 11.8714 8.00687 11.8268L8.11609 11.4817L7.82494 11.2667C7.78726 11.2388 7.80666 11.1791 7.85353 11.1787L8.21547 11.1759L8.32996 10.8325C8.34478 10.7881 8.4076 10.7881 8.42242 10.8325Z" fill="#F5F5F5"/>
<path d="M8.42242 12.6287L8.53691 12.9721L8.89885 12.9748C8.94572 12.9752 8.96512 13.035 8.92744 13.0628L8.63629 13.2779L8.74551 13.6229C8.75969 13.6676 8.70877 13.7046 8.67062 13.6773L8.37619 13.4668L8.08176 13.6773C8.04361 13.7045 7.99281 13.6676 8.00687 13.6229L8.11609 13.2779L7.82494 13.0628C7.78726 13.0349 7.80666 12.9752 7.85353 12.9748L8.21547 12.9721L8.32996 12.6287C8.34478 12.5843 8.4076 12.5843 8.42242 12.6287Z" fill="#F5F5F5"/>
<path d="M9.81756 6.35965L9.93206 6.70301L10.294 6.70576C10.3409 6.70617 10.3603 6.76593 10.3226 6.79377L10.0314 7.0088L10.1406 7.35386C10.1548 7.39851 10.1039 7.43554 10.0658 7.40823L9.77133 7.19777L9.4769 7.40823C9.43875 7.43548 9.38795 7.39851 9.40201 7.35386L9.51123 7.0088L9.22008 6.79377C9.1824 6.76588 9.2018 6.70617 9.24867 6.70576L9.61061 6.70301L9.7251 6.35965C9.73981 6.31518 9.80274 6.31518 9.81756 6.35965Z" fill="#F5F5F5"/>
<path d="M9.81756 8.15578L9.93206 8.49914L10.294 8.50189C10.3409 8.5023 10.3603 8.56207 10.3226 8.5899L10.0314 8.80494L10.1406 9.14999C10.1548 9.19464 10.1039 9.23167 10.0658 9.20437L9.77133 8.9939L9.4769 9.20437C9.43875 9.23161 9.38795 9.19464 9.40201 9.14999L9.51123 8.80494L9.22008 8.5899C9.1824 8.56201 9.2018 8.5023 9.24867 8.50189L9.61061 8.49914L9.7251 8.15578C9.73981 8.11136 9.80274 8.11136 9.81756 8.15578Z" fill="#F5F5F5"/>
<path d="M9.81756 9.95189L9.93206 10.2953L10.294 10.298C10.3409 10.2984 10.3603 10.3582 10.3226 10.386L10.0314 10.6011L10.1406 10.9461C10.1548 10.9908 10.1039 11.0278 10.0658 11.0005L9.77133 10.79L9.4769 11.0005C9.43875 11.0277 9.38795 10.9908 9.40201 10.9461L9.51123 10.6011L9.22008 10.386C9.1824 10.3581 9.2018 10.2984 9.24867 10.298L9.61061 10.2953L9.7251 9.95189C9.73981 9.90748 9.80274 9.90748 9.81756 9.95189Z" fill="#F5F5F5"/>
<path d="M9.81756 11.7481L9.93206 12.0914L10.294 12.0942C10.3409 12.0946 10.3603 12.1544 10.3226 12.1822L10.0314 12.3972L10.1406 12.7423C10.1548 12.7869 10.1039 12.824 10.0658 12.7967L9.77133 12.5862L9.4769 12.7967C9.43875 12.8239 9.38795 12.7869 9.40201 12.7423L9.51123 12.3972L9.22008 12.1822C9.1824 12.1543 9.2018 12.0946 9.24867 12.0942L9.61061 12.0914L9.7251 11.7481C9.73981 11.7036 9.80274 11.7036 9.81756 11.7481Z" fill="#F5F5F5"/>
<path d="M9.81756 13.5442L9.93206 13.8876L10.294 13.8903C10.3409 13.8907 10.3603 13.9505 10.3226 13.9783L10.0314 14.1934L10.1406 14.5384C10.1548 14.5831 10.1039 14.6201 10.0658 14.5928L9.77133 14.3823L9.4769 14.5928C9.43875 14.62 9.38795 14.5831 9.40201 14.5384L9.51123 14.1934L9.22008 13.9783C9.1824 13.9504 9.2018 13.8907 9.24867 13.8903L9.61061 13.8876L9.7251 13.5442C9.73981 13.4997 9.80274 13.4997 9.81756 13.5442Z" fill="#F5F5F5"/>
<path d="M11.2117 7.24025L11.3262 7.58361L11.6881 7.58636C11.735 7.58677 11.7544 7.64654 11.7167 7.67437L11.4256 7.88941L11.5348 8.23447C11.549 8.27911 11.4981 8.31615 11.4599 8.28884L11.1655 8.07837L10.8711 8.28884C10.8329 8.31609 10.7821 8.27911 10.7962 8.23447L10.9054 7.88941L10.6142 7.67437C10.5766 7.64648 10.596 7.58677 10.6428 7.58636L11.0048 7.58361L11.1193 7.24025C11.134 7.19584 11.197 7.19584 11.2117 7.24025Z" fill="#F5F5F5"/>
<path d="M11.2117 9.03641L11.3262 9.37976L11.6881 9.38252C11.735 9.38293 11.7544 9.44269 11.7167 9.47052L11.4256 9.68556L11.5348 10.0306C11.549 10.0753 11.4981 10.1123 11.4599 10.085L11.1655 9.87452L10.8711 10.085C10.8329 10.1122 10.7821 10.0753 10.7962 10.0306L10.9054 9.68556L10.6142 9.47052C10.5766 9.44263 10.596 9.38293 10.6428 9.38252L11.0048 9.37976L11.1193 9.03641C11.134 8.99193 11.197 8.99193 11.2117 9.03641Z" fill="#F5F5F5"/>
<path d="M11.2117 10.8325L11.3262 11.1759L11.6881 11.1787C11.735 11.1791 11.7544 11.2388 11.7167 11.2667L11.4256 11.4817L11.5348 11.8268C11.549 11.8714 11.4981 11.9084 11.4599 11.8811L11.1655 11.6707L10.8711 11.8811C10.8329 11.9084 10.7821 11.8714 10.7962 11.8268L10.9054 11.4817L10.6142 11.2667C10.5766 11.2388 10.596 11.1791 10.6428 11.1787L11.0048 11.1759L11.1193 10.8325C11.134 10.7881 11.197 10.7881 11.2117 10.8325Z" fill="#F5F5F5"/>
<path d="M11.2117 12.6287L11.3262 12.9721L11.6881 12.9748C11.735 12.9752 11.7544 13.035 11.7167 13.0628L11.4256 13.2779L11.5348 13.6229C11.549 13.6676 11.4981 13.7046 11.4599 13.6773L11.1655 13.4668L10.8711 13.6773C10.8329 13.7045 10.7821 13.6676 10.7962 13.6229L10.9054 13.2779L10.6142 13.0628C10.5766 13.0349 10.596 12.9752 10.6428 12.9748L11.0048 12.9721L11.1193 12.6287C11.134 12.5843 11.197 12.5843 11.2117 12.6287Z" fill="#F5F5F5"/>
<path d="M12.6056 6.35965L12.7201 6.70301L13.0821 6.70576C13.1289 6.70617 13.1483 6.76593 13.1107 6.79377L12.8195 7.0088L12.9287 7.35386C12.9429 7.39851 12.892 7.43554 12.8538 7.40823L12.5594 7.19777L12.265 7.40823C12.2268 7.43548 12.176 7.39851 12.1901 7.35386L12.2993 7.0088L12.0082 6.79377C11.9705 6.76588 11.9899 6.70617 12.0368 6.70576L12.3987 6.70301L12.5132 6.35965C12.5279 6.31518 12.5908 6.31518 12.6056 6.35965Z" fill="#F5F5F5"/>
<path d="M12.6056 8.15578L12.7201 8.49914L13.0821 8.50189C13.1289 8.5023 13.1483 8.56207 13.1107 8.5899L12.8195 8.80494L12.9287 9.14999C12.9429 9.19464 12.892 9.23167 12.8538 9.20437L12.5594 8.9939L12.265 9.20437C12.2268 9.23161 12.176 9.19464 12.1901 9.14999L12.2993 8.80494L12.0082 8.5899C11.9705 8.56201 11.9899 8.5023 12.0368 8.50189L12.3987 8.49914L12.5132 8.15578C12.5279 8.11136 12.5908 8.11136 12.6056 8.15578Z" fill="#F5F5F5"/>
<path d="M12.6056 9.95189L12.7201 10.2953L13.0821 10.298C13.1289 10.2984 13.1483 10.3582 13.1107 10.386L12.8195 10.6011L12.9287 10.9461C12.9429 10.9908 12.892 11.0278 12.8538 11.0005L12.5594 10.79L12.265 11.0005C12.2268 11.0277 12.176 10.9908 12.1901 10.9461L12.2993 10.6011L12.0082 10.386C11.9705 10.3581 11.9899 10.2984 12.0368 10.298L12.3987 10.2953L12.5132 9.95189C12.5279 9.90748 12.5908 9.90748 12.6056 9.95189Z" fill="#F5F5F5"/>
<path d="M12.6056 11.7481L12.7201 12.0914L13.0821 12.0942C13.1289 12.0946 13.1483 12.1544 13.1107 12.1822L12.8195 12.3972L12.9287 12.7423C12.9429 12.7869 12.892 12.824 12.8538 12.7967L12.5594 12.5862L12.265 12.7967C12.2268 12.8239 12.176 12.7869 12.1901 12.7423L12.2993 12.3972L12.0082 12.1822C11.9705 12.1543 11.9899 12.0946 12.0368 12.0942L12.3987 12.0914L12.5132 11.7481C12.5279 11.7036 12.5908 11.7036 12.6056 11.7481Z" fill="#F5F5F5"/>
<path d="M12.6056 13.5442L12.7201 13.8876L13.0821 13.8903C13.1289 13.8907 13.1483 13.9505 13.1107 13.9783L12.8195 14.1934L12.9287 14.5384C12.9429 14.5831 12.892 14.6201 12.8538 14.5928L12.5594 14.3823L12.265 14.5928C12.2268 14.62 12.176 14.5831 12.1901 14.5384L12.2993 14.1934L12.0082 13.9783C11.9705 13.9504 11.9899 13.8907 12.0368 13.8903L12.3987 13.8876L12.5132 13.5442C12.5279 13.4997 12.5908 13.4997 12.6056 13.5442Z" fill="#F5F5F5"/>
</svg>
